<?xml version="1.0" encoding="UTF-8"?>
<svg width="1600px" height="300px" viewBox="0 0 1600 300" version="1.1" xmlns="http://www.w3.org/2000/svg" xmlns:xlink="http://www.w3.org/1999/xlink" style="background: #FFFFFF;">
    <!-- Generator: Sketch 47.1 (45422) - http://www.bohemiancoding.com/sketch -->
    <title>native-login - baner - outline</title>
    <desc>Created with Sketch.</desc>
    <defs>
        <polygon id="path-1" points="0.0228515625 127.881524 0.0228515625 0.0918095238 195 0.0918095238 195 63.9866667 195 127.881524"></polygon>
        <polygon id="path-3" points="49.6691729 53.9771831 0.00676691729 53.9771831 0.00676691729 0.288253521 49.6691729 0.288253521"></polygon>
    </defs>
    <g id="Page-1" stroke="none" stroke-width="1" fill="none" fill-rule="evenodd">
        <g id="native-login---baner---outline">
            <g id="Group-3" transform="translate(367.000000, 85.000000)">
                <g id="Group-2" transform="translate(241.000000, 11.000000)">
                    <g id="Group">
                        <path d="M13.536,95.948 C13.536,94.6759936 13.1520038,93.7340031 12.384,93.122 C11.6159962,92.5099969 10.5960064,92.204 9.324,92.204 C8.3639952,92.204 7.45800426,92.3899981 6.606,92.762 C5.75399574,93.1340019 5.04000288,93.6079971 4.464,94.184 L2.664,92.024 C3.5040042,91.231996 4.52999394,90.6080023 5.742,90.152 C6.95400606,89.6959977 8.25599304,89.468 9.648,89.468 C10.8720061,89.468 11.9339955,89.6419983 12.834,89.99 C13.7340045,90.3380017 14.4719971,90.811997 15.048,91.412 C15.6240029,92.012003 16.0559986,92.7199959 16.344,93.536 C16.6320014,94.3520041 16.776,95.2279953 16.776,96.164 L16.776,103.616 C16.776,104.192003 16.7939998,104.797997 16.83,105.434 C16.8660002,106.070003 16.9319995,106.591998 17.028,107 L13.968,107 C13.775999,106.183996 13.68,105.368004 13.68,104.552 L13.572,104.552 C12.9479969,105.464005 12.1620047,106.171997 11.214,106.676 C10.2659953,107.180003 9.14400648,107.432 7.848,107.432 C7.17599664,107.432 6.47400366,107.342001 5.742,107.162 C5.00999634,106.981999 4.344003,106.688002 3.744,106.28 C3.143997,105.871998 2.64600198,105.332003 2.25,104.66 C1.85399802,103.987997 1.656,103.160005 1.656,102.176 C1.656,100.879994 2.00399652,99.8540038 2.7,99.098 C3.39600348,98.3419962 4.30799436,97.766002 5.436,97.37 C6.56400564,96.973998 7.83599292,96.7160006 9.252,96.596 C10.6680071,96.4759994 12.0959928,96.416 13.536,96.416 L13.536,95.948 Z M12.708,98.864 C11.8679958,98.864 10.9980045,98.8999996 10.098,98.972 C9.1979955,99.0440004 8.38200366,99.1879989 7.65,99.404 C6.91799634,99.6200011 6.3120024,99.9439978 5.832,100.376 C5.3519976,100.808002 5.112,101.383996 5.112,102.104 C5.112,102.608003 5.21399898,103.027998 5.418,103.364 C5.62200102,103.700002 5.89199832,103.975999 6.228,104.192 C6.56400168,104.408001 6.93599796,104.558 7.344,104.642 C7.75200204,104.726 8.17199784,104.768 8.604,104.768 C10.1880079,104.768 11.4059957,104.294005 12.258,103.346 C13.1100043,102.397995 13.536,101.204007 13.536,99.764 L13.536,98.864 L12.708,98.864 Z M36.509143,107 C36.4611427,106.567998 36.4251431,106.082003 36.401143,105.542 C36.3771429,105.001997 36.365143,104.552002 36.365143,104.192 L36.293143,104.192 C35.8611408,105.104005 35.1351481,105.877997 34.115143,106.514 C33.0951379,107.150003 31.9611492,107.468 30.713143,107.468 C29.6091375,107.468 28.655147,107.288002 27.851143,106.928 C27.047139,106.567998 26.3871456,106.070003 25.871143,105.434 C25.3551404,104.797997 24.9711442,104.060004 24.719143,103.22 C24.4671417,102.379996 24.341143,101.480005 24.341143,100.52 L24.341143,89.936 L27.725143,89.936 L27.725143,99.368 C27.725143,100.064003 27.7791424,100.729997 27.887143,101.366 C27.9951435,102.002003 28.1931415,102.559998 28.481143,103.04 C28.7691444,103.520002 29.1651405,103.903999 29.669143,104.192 C30.1731455,104.480001 30.821139,104.624 31.613143,104.624 C32.9811498,104.624 34.0851388,104.114005 34.925143,103.094 C35.7651472,102.073995 36.185143,100.712009 36.185143,99.008 L36.185143,89.936 L39.569143,89.936 L39.569143,103.328 C39.569143,103.784002 39.5811429,104.371996 39.605143,105.092 C39.6291431,105.812004 39.6651427,106.447997 39.713143,107 L36.509143,107 Z M55.8462859,92.708 L51.3102859,92.708 L51.3102859,101.6 C51.3102859,102.632005 51.502284,103.369998 51.8862859,103.814 C52.2702879,104.258002 52.8822817,104.48 53.7222859,104.48 C54.0342875,104.48 54.3702841,104.444 54.7302859,104.372 C55.0902877,104.3 55.4142845,104.192001 55.7022859,104.048 L55.8102859,106.82 C55.4022839,106.964001 54.9522884,107.078 54.4602859,107.162 C53.9682835,107.246 53.4582886,107.288 52.9302859,107.288 C51.3222779,107.288 50.0922902,106.844004 49.2402859,105.956 C48.3882817,105.067996 47.9622859,103.736009 47.9622859,101.96 L47.9622859,92.708 L44.6862859,92.708 L44.6862859,89.936 L47.9622859,89.936 L47.9622859,85.04 L51.3102859,85.04 L51.3102859,89.936 L55.8462859,89.936 L55.8462859,92.708 Z M64.9234289,92.528 C65.331431,91.6879958 66.027424,90.968003 67.0114289,90.368 C67.9954338,89.767997 69.0994228,89.468 70.3234289,89.468 C71.4274344,89.468 72.375425,89.6539981 73.1674289,90.026 C73.9594329,90.3980019 74.6194263,90.8959969 75.1474289,91.52 C75.6754316,92.1440031 76.0654277,92.8759958 76.3174289,93.716 C76.5694302,94.5560042 76.6954289,95.4559952 76.6954289,96.416 L76.6954289,107 L73.3114289,107 L73.3114289,97.568 C73.3114289,96.8719965 73.2574295,96.2120031 73.1494289,95.588 C73.0414284,94.9639969 72.8434304,94.4120024 72.5554289,93.932 C72.2674275,93.4519976 71.8774314,93.0680014 71.3854289,92.78 C70.8934265,92.4919986 70.2514329,92.348 69.4594289,92.348 C68.1154222,92.348 67.0114332,92.8579949 66.1474289,93.878 C65.2834246,94.8980051 64.8514289,96.2599915 64.8514289,97.964 L64.8514289,107 L61.4674289,107 L61.4674289,79.784 L64.8514289,79.784 L64.8514289,92.528 L64.9234289,92.528 Z M101.756572,98.432 C101.756572,99.7520066 101.522574,100.963994 101.054572,102.068 C100.58657,103.172006 99.938576,104.125996 99.1105719,104.93 C98.2825678,105.734004 97.3045775,106.357998 96.1765719,106.802 C95.0485663,107.246002 93.8365784,107.468 92.5405719,107.468 C91.2445654,107.468 90.0325775,107.246002 88.9045719,106.802 C87.7765663,106.357998 86.804576,105.734004 85.9885719,104.93 C85.1725678,104.125996 84.5305742,103.172006 84.0625719,102.068 C83.5945696,100.963994 83.3605719,99.7520066 83.3605719,98.432 C83.3605719,97.1119934 83.5945696,95.9060055 84.0625719,94.814 C84.5305742,93.7219945 85.1725678,92.780004 85.9885719,91.988 C86.804576,91.195996 87.7765663,90.5780022 88.9045719,90.134 C90.0325775,89.6899978 91.2445654,89.468 92.5405719,89.468 C93.8365784,89.468 95.0485663,89.6899978 96.1765719,90.134 C97.3045775,90.5780022 98.2825678,91.195996 99.1105719,91.988 C99.938576,92.780004 100.58657,93.7219945 101.054572,94.814 C101.522574,95.9060055 101.756572,97.1119934 101.756572,98.432 Z M98.2285719,98.432 C98.2285719,97.6159959 98.1025732,96.8360037 97.8505719,96.092 C97.5985706,95.3479963 97.2325743,94.6940028 96.7525719,94.13 C96.2725695,93.5659972 95.6785754,93.1160017 94.9705719,92.78 C94.2625684,92.4439983 93.4525765,92.276 92.5405719,92.276 C91.6285673,92.276 90.8185754,92.4439983 90.1105719,92.78 C89.4025684,93.1160017 88.8085743,93.5659972 88.3285719,94.13 C87.8485695,94.6940028 87.4825732,95.3479963 87.2305719,96.092 C86.9785706,96.8360037 86.8525719,97.6159959 86.8525719,98.432 C86.8525719,99.2480041 86.9785706,100.027996 87.2305719,100.772 C87.4825732,101.516004 87.8485695,102.175997 88.3285719,102.752 C88.8085743,103.328003 89.4025684,103.783998 90.1105719,104.12 C90.8185754,104.456002 91.6285673,104.624 92.5405719,104.624 C93.4525765,104.624 94.2625684,104.456002 94.9705719,104.12 C95.6785754,103.783998 96.2725695,103.328003 96.7525719,102.752 C97.2325743,102.175997 97.5985706,101.516004 97.8505719,100.772 C98.1025732,100.027996 98.2285719,99.2480041 98.2285719,98.432 Z M108.493715,93.608 C108.493715,93.1519977 108.481715,92.5640036 108.457715,91.844 C108.433715,91.1239964 108.397715,90.4880028 108.349715,89.936 L111.553715,89.936 C111.601715,90.3680022 111.637715,90.8659972 111.661715,91.43 C111.685715,91.9940028 111.697715,92.4559982 111.697715,92.816 L111.805715,92.816 C112.285717,91.807995 112.98771,90.9980031 113.911715,90.386 C114.835719,89.7739969 115.873709,89.468 117.025715,89.468 C117.553718,89.468 117.997713,89.5159995 118.357715,89.612 L118.213715,92.744 C117.733712,92.6239994 117.217718,92.564 116.665715,92.564 C115.849711,92.564 115.141718,92.7139985 114.541715,93.014 C113.941712,93.3140015 113.443717,93.7159975 113.047715,94.22 C112.651713,94.7240025 112.357716,95.3059967 112.165715,95.966 C111.973714,96.6260033 111.877715,97.3159964 111.877715,98.036 L111.877715,107 L108.493715,107 L108.493715,93.608 Z M127.002858,107 L123.618858,107 L123.618858,89.936 L127.002858,89.936 L127.002858,107 Z M127.578858,83.78 C127.578858,84.4040031 127.35686,84.919998 126.912858,85.328 C126.468856,85.736002 125.934861,85.94 125.310858,85.94 C124.686855,85.94 124.15886,85.7300021 123.726858,85.31 C123.294856,84.8899979 123.078858,84.380003 123.078858,83.78 C123.078858,83.1559969 123.294856,82.6340021 123.726858,82.214 C124.15886,81.7939979 124.686855,81.584 125.310858,81.584 C125.934861,81.584 126.468856,81.7939979 126.912858,82.214 C127.35686,82.6340021 127.578858,83.1559969 127.578858,83.78 Z M147.132001,92.708 L137.412001,104.156 L147.528001,104.156 L147.528001,107 L133.236001,107 L133.236001,104.228 L142.884001,92.708 L133.704001,92.708 L133.704001,89.936 L147.132001,89.936 L147.132001,92.708 Z M164.273144,95.948 C164.273144,94.6759936 163.889148,93.7340031 163.121144,93.122 C162.35314,92.5099969 161.33315,92.204 160.061144,92.204 C159.101139,92.204 158.195148,92.3899981 157.343144,92.762 C156.49114,93.1340019 155.777147,93.6079971 155.201144,94.184 L153.401144,92.024 C154.241148,91.231996 155.267138,90.6080023 156.479144,90.152 C157.69115,89.6959977 158.993137,89.468 160.385144,89.468 C161.60915,89.468 162.671139,89.6419983 163.571144,89.99 C164.471148,90.3380017 165.209141,90.811997 165.785144,91.412 C166.361147,92.012003 166.793142,92.7199959 167.081144,93.536 C167.369145,94.3520041 167.513144,95.2279953 167.513144,96.164 L167.513144,103.616 C167.513144,104.192003 167.531144,104.797997 167.567144,105.434 C167.603144,106.070003 167.669143,106.591998 167.765144,107 L164.705144,107 C164.513143,106.183996 164.417144,105.368004 164.417144,104.552 L164.309144,104.552 C163.685141,105.464005 162.899149,106.171997 161.951144,106.676 C161.003139,107.180003 159.88115,107.432 158.585144,107.432 C157.91314,107.432 157.211147,107.342001 156.479144,107.162 C155.74714,106.981999 155.081147,106.688002 154.481144,106.28 C153.881141,105.871998 153.383146,105.332003 152.987144,104.66 C152.591142,103.987997 152.393144,103.160005 152.393144,102.176 C152.393144,100.879994 152.74114,99.8540038 153.437144,99.098 C154.133147,98.3419962 155.045138,97.766002 156.173144,97.37 C157.301149,96.973998 158.573137,96.7160006 159.989144,96.596 C161.405151,96.4759994 162.833137,96.416 164.273144,96.416 L164.273144,95.948 Z M163.445144,98.864 C162.60514,98.864 161.735148,98.8999996 160.835144,98.972 C159.935139,99.0440004 159.119147,99.1879989 158.387144,99.404 C157.65514,99.6200011 157.049146,99.9439978 156.569144,100.376 C156.089141,100.808002 155.849144,101.383996 155.849144,102.104 C155.849144,102.608003 155.951143,103.027998 156.155144,103.364 C156.359145,103.700002 156.629142,103.975999 156.965144,104.192 C157.301145,104.408001 157.673142,104.558 158.081144,104.642 C158.489146,104.726 158.909142,104.768 159.341144,104.768 C160.925152,104.768 162.14314,104.294005 162.995144,103.346 C163.847148,102.397995 164.273144,101.204007 164.273144,99.764 L164.273144,98.864 L163.445144,98.864 Z M183.214287,92.708 L178.678287,92.708 L178.678287,101.6 C178.678287,102.632005 178.870285,103.369998 179.254287,103.814 C179.638289,104.258002 180.250283,104.48 181.090287,104.48 C181.402288,104.48 181.738285,104.444 182.098287,104.372 C182.458289,104.3 182.782285,104.192001 183.070287,104.048 L183.178287,106.82 C182.770285,106.964001 182.320289,107.078 181.828287,107.162 C181.336284,107.246 180.826289,107.288 180.298287,107.288 C178.690279,107.288 177.460291,106.844004 176.608287,105.956 C175.756282,105.067996 175.330287,103.736009 175.330287,101.96 L175.330287,92.708 L172.054287,92.708 L172.054287,89.936 L175.330287,89.936 L175.330287,85.04 L178.678287,85.04 L178.678287,89.936 L183.214287,89.936 L183.214287,92.708 Z M192.18343,107 L188.79943,107 L188.79943,89.936 L192.18343,89.936 L192.18343,107 Z M192.75943,83.78 C192.75943,84.4040031 192.537432,84.919998 192.09343,85.328 C191.649428,85.736002 191.115433,85.94 190.49143,85.94 C189.867427,85.94 189.339432,85.7300021 188.90743,85.31 C188.475428,84.8899979 188.25943,84.380003 188.25943,83.78 C188.25943,83.1559969 188.475428,82.6340021 188.90743,82.214 C189.339432,81.7939979 189.867427,81.584 190.49143,81.584 C191.115433,81.584 191.649428,81.7939979 192.09343,82.214 C192.537432,82.6340021 192.75943,83.1559969 192.75943,83.78 Z M217.424573,98.432 C217.424573,99.7520066 217.190575,100.963994 216.722573,102.068 C216.25457,103.172006 215.606577,104.125996 214.778573,104.93 C213.950569,105.734004 212.972578,106.357998 211.844573,106.802 C210.716567,107.246002 209.504579,107.468 208.208573,107.468 C206.912566,107.468 205.700578,107.246002 204.572573,106.802 C203.444567,106.357998 202.472577,105.734004 201.656573,104.93 C200.840569,104.125996 200.198575,103.172006 199.730573,102.068 C199.26257,100.963994 199.028573,99.7520066 199.028573,98.432 C199.028573,97.1119934 199.26257,95.9060055 199.730573,94.814 C200.198575,93.7219945 200.840569,92.780004 201.656573,91.988 C202.472577,91.195996 203.444567,90.5780022 204.572573,90.134 C205.700578,89.6899978 206.912566,89.468 208.208573,89.468 C209.504579,89.468 210.716567,89.6899978 211.844573,90.134 C212.972578,90.5780022 213.950569,91.195996 214.778573,91.988 C215.606577,92.780004 216.25457,93.7219945 216.722573,94.814 C217.190575,95.9060055 217.424573,97.1119934 217.424573,98.432 Z M213.896573,98.432 C213.896573,97.6159959 213.770574,96.8360037 213.518573,96.092 C213.266571,95.3479963 212.900575,94.6940028 212.420573,94.13 C211.94057,93.5659972 211.346576,93.1160017 210.638573,92.78 C209.930569,92.4439983 209.120577,92.276 208.208573,92.276 C207.296568,92.276 206.486576,92.4439983 205.778573,92.78 C205.070569,93.1160017 204.476575,93.5659972 203.996573,94.13 C203.51657,94.6940028 203.150574,95.3479963 202.898573,96.092 C202.646571,96.8360037 202.520573,97.6159959 202.520573,98.432 C202.520573,99.2480041 202.646571,100.027996 202.898573,100.772 C203.150574,101.516004 203.51657,102.175997 203.996573,102.752 C204.476575,103.328003 205.070569,103.783998 205.778573,104.12 C206.486576,104.456002 207.296568,104.624 208.208573,104.624 C209.120577,104.624 209.930569,104.456002 210.638573,104.12 C211.346576,103.783998 211.94057,103.328003 212.420573,102.752 C212.900575,102.175997 213.266571,101.516004 213.518573,100.772 C213.770574,100.027996 213.896573,99.2480041 213.896573,98.432 Z M227.221716,89.936 C227.269716,90.3680022 227.305716,90.8539973 227.329716,91.394 C227.353716,91.9340027 227.365716,92.3839982 227.365716,92.744 L227.473716,92.744 C227.689717,92.2879977 227.983714,91.862002 228.355716,91.466 C228.727718,91.069998 229.153713,90.7220015 229.633716,90.422 C230.113718,90.1219985 230.641713,89.8880008 231.217716,89.72 C231.793719,89.5519992 232.393713,89.468 233.017716,89.468 C234.121721,89.468 235.069712,89.6539981 235.861716,90.026 C236.65372,90.3980019 237.313713,90.8959969 237.841716,91.52 C238.369718,92.1440031 238.759714,92.8759958 239.011716,93.716 C239.263717,94.5560042 239.389716,95.4559952 239.389716,96.416 L239.389716,107 L236.005716,107 L236.005716,97.532 C236.005716,96.8359965 235.951716,96.1760031 235.843716,95.552 C235.735715,94.9279969 235.537717,94.3760024 235.249716,93.896 C234.961714,93.4159976 234.565718,93.0320014 234.061716,92.744 C233.557713,92.4559986 232.90972,92.312 232.117716,92.312 C230.773709,92.312 229.67572,92.8219949 228.823716,93.842 C227.971711,94.8620051 227.545716,96.2239915 227.545716,97.928 L227.545716,107 L224.161716,107 L224.161716,93.608 C224.161716,93.1519977 224.149716,92.5640036 224.125716,91.844 C224.101716,91.1239964 224.065716,90.4880028 224.017716,89.936 L227.221716,89.936 Z M266.256002,92.708 L262.296002,92.708 L262.296002,107 L258.912002,107 L258.912002,92.708 L255.528002,92.708 L255.528002,89.936 L258.912002,89.936 L258.912002,86.372 C258.912002,85.363995 259.026,84.4340043 259.254002,83.582 C259.482003,82.7299957 259.853999,81.9920031 260.370002,81.368 C260.886004,80.7439969 261.545998,80.2520018 262.350002,79.892 C263.154006,79.5319982 264.131996,79.352 265.284002,79.352 C266.100006,79.352 266.807999,79.4359992 267.408002,79.604 L267.012002,82.52 C266.748,82.4479996 266.484003,82.3880002 266.220002,82.34 C265.956,82.2919998 265.656003,82.268 265.320002,82.268 C264.671998,82.268 264.150004,82.3819989 263.754002,82.61 C263.358,82.8380011 263.052003,83.1439981 262.836002,83.528 C262.620001,83.9120019 262.476002,84.3499975 262.404002,84.842 C262.332001,85.3340025 262.296002,85.8439974 262.296002,86.372 L262.296002,89.936 L266.256002,89.936 L266.256002,92.708 Z M288.725145,98.432 C288.725145,99.7520066 288.491147,100.963994 288.023145,102.068 C287.555142,103.172006 286.907149,104.125996 286.079145,104.93 C285.25114,105.734004 284.27315,106.357998 283.145145,106.802 C282.017139,107.246002 280.805151,107.468 279.509145,107.468 C278.213138,107.468 277.00115,107.246002 275.873145,106.802 C274.745139,106.357998 273.773149,105.734004 272.957145,104.93 C272.141141,104.125996 271.499147,103.172006 271.031145,102.068 C270.563142,100.963994 270.329145,99.7520066 270.329145,98.432 C270.329145,97.1119934 270.563142,95.9060055 271.031145,94.814 C271.499147,93.7219945 272.141141,92.780004 272.957145,91.988 C273.773149,91.195996 274.745139,90.5780022 275.873145,90.134 C277.00115,89.6899978 278.213138,89.468 279.509145,89.468 C280.805151,89.468 282.017139,89.6899978 283.145145,90.134 C284.27315,90.5780022 285.25114,91.195996 286.079145,91.988 C286.907149,92.780004 287.555142,93.7219945 288.023145,94.814 C288.491147,95.9060055 288.725145,97.1119934 288.725145,98.432 Z M285.197145,98.432 C285.197145,97.6159959 285.071146,96.8360037 284.819145,96.092 C284.567143,95.3479963 284.201147,94.6940028 283.721145,94.13 C283.241142,93.5659972 282.647148,93.1160017 281.939145,92.78 C281.231141,92.4439983 280.421149,92.276 279.509145,92.276 C278.59714,92.276 277.787148,92.4439983 277.079145,92.78 C276.371141,93.1160017 275.777147,93.5659972 275.297145,94.13 C274.817142,94.6940028 274.451146,95.3479963 274.199145,96.092 C273.947143,96.8360037 273.821145,97.6159959 273.821145,98.432 C273.821145,99.2480041 273.947143,100.027996 274.199145,100.772 C274.451146,101.516004 274.817142,102.175997 275.297145,102.752 C275.777147,103.328003 276.371141,103.783998 277.079145,104.12 C277.787148,104.456002 278.59714,104.624 279.509145,104.624 C280.421149,104.624 281.231141,104.456002 281.939145,104.12 C282.647148,103.783998 283.241142,103.328003 283.721145,102.752 C284.201147,102.175997 284.567143,101.516004 284.819145,100.772 C285.071146,100.027996 285.197145,99.2480041 285.197145,98.432 Z M295.462288,93.608 C295.462288,93.1519977 295.450288,92.5640036 295.426288,91.844 C295.402287,91.1239964 295.366288,90.4880028 295.318288,89.936 L298.522288,89.936 C298.570288,90.3680022 298.606287,90.8659972 298.630288,91.43 C298.654288,91.9940028 298.666288,92.4559982 298.666288,92.816 L298.774288,92.816 C299.25429,91.807995 299.956283,90.9980031 300.880288,90.386 C301.804292,89.7739969 302.842282,89.468 303.994288,89.468 C304.52229,89.468 304.966286,89.5159995 305.326288,89.612 L305.182288,92.744 C304.702285,92.6239994 304.18629,92.564 303.634288,92.564 C302.818283,92.564 302.110291,92.7139985 301.510288,93.014 C300.910285,93.3140015 300.41229,93.7159975 300.016288,94.22 C299.620286,94.7240025 299.326289,95.3059967 299.134288,95.966 C298.942287,96.6260033 298.846288,97.3159964 298.846288,98.036 L298.846288,107 L295.462288,107 L295.462288,93.608 Z M313.863431,92.744 C314.295433,91.8319954 314.985426,91.0580032 315.933431,90.422 C316.881435,89.7859968 318.003424,89.468 319.299431,89.468 C320.451436,89.468 321.489426,89.7319974 322.413431,90.26 C323.337435,90.7880026 324.063428,91.6639939 324.591431,92.888 C325.167433,91.7839945 325.971425,90.9380029 327.003431,90.35 C328.035436,89.7619971 329.163424,89.468 330.387431,89.468 C331.491436,89.468 332.439427,89.6539981 333.231431,90.026 C334.023435,90.3980019 334.683428,90.8959969 335.211431,91.52 C335.739433,92.1440031 336.129429,92.8759958 336.381431,93.716 C336.633432,94.5560042 336.759431,95.4559952 336.759431,96.416 L336.759431,107 L333.375431,107 L333.375431,97.532 C333.375431,96.8359965 333.315431,96.1760031 333.195431,95.552 C333.07543,94.9279969 332.871432,94.3760024 332.583431,93.896 C332.295429,93.4159976 331.911433,93.0320014 331.431431,92.744 C330.951428,92.4559986 330.339434,92.312 329.595431,92.312 C328.827427,92.312 328.167433,92.4739984 327.615431,92.798 C327.063428,93.1220016 326.613432,93.5419974 326.265431,94.058 C325.917429,94.5740026 325.665431,95.1559968 325.509431,95.804 C325.35343,96.4520032 325.275431,97.1119966 325.275431,97.784 L325.275431,107 L321.891431,107 L321.891431,96.848 C321.891431,96.1759966 321.831431,95.5640028 321.711431,95.012 C321.59143,94.4599972 321.387432,93.986002 321.099431,93.59 C320.811429,93.193998 320.439433,92.8820011 319.983431,92.654 C319.527428,92.4259989 318.963434,92.312 318.291431,92.312 C317.043424,92.312 316.005435,92.8219949 315.177431,93.842 C314.349426,94.8620051 313.935431,96.2239915 313.935431,97.928 L313.935431,107 L310.551431,107 L310.551431,93.608 C310.551431,93.1519977 310.539431,92.5640036 310.515431,91.844 C310.49143,91.1239964 310.455431,90.4880028 310.407431,89.936 L313.611431,89.936 C313.659431,90.3680022 313.69543,90.8539973 313.719431,91.394 C313.743431,91.9340027 313.755431,92.3839982 313.755431,92.744 L313.863431,92.744 Z M359.017716,107 L355.633716,107 L355.633716,89.936 L359.017716,89.936 L359.017716,107 Z M359.593716,83.78 C359.593716,84.4040031 359.371719,84.919998 358.927716,85.328 C358.483714,85.736002 357.94972,85.94 357.325716,85.94 C356.701713,85.94 356.173719,85.7300021 355.741716,85.31 C355.309714,84.8899979 355.093716,84.380003 355.093716,83.78 C355.093716,83.1559969 355.309714,82.6340021 355.741716,82.214 C356.173719,81.7939979 356.701713,81.584 357.325716,81.584 C357.94972,81.584 358.483714,81.7939979 358.927716,82.214 C359.371719,82.6340021 359.593716,83.1559969 359.593716,83.78 Z M370.038859,89.936 C370.08686,90.3680022 370.122859,90.8539973 370.146859,91.394 C370.17086,91.9340027 370.182859,92.3839982 370.182859,92.744 L370.290859,92.744 C370.506861,92.2879977 370.800858,91.862002 371.172859,91.466 C371.544861,91.069998 371.970857,90.7220015 372.450859,90.422 C372.930862,90.1219985 373.458857,89.8880008 374.034859,89.72 C374.610862,89.5519992 375.210856,89.468 375.834859,89.468 C376.938865,89.468 377.886855,89.6539981 378.678859,90.026 C379.470863,90.3980019 380.130857,90.8959969 380.658859,91.52 C381.186862,92.1440031 381.576858,92.8759958 381.828859,93.716 C382.080861,94.5560042 382.206859,95.4559952 382.206859,96.416 L382.206859,107 L378.822859,107 L378.822859,97.532 C378.822859,96.8359965 378.76886,96.1760031 378.660859,95.552 C378.552859,94.9279969 378.354861,94.3760024 378.066859,93.896 C377.778858,93.4159976 377.382862,93.0320014 376.878859,92.744 C376.374857,92.4559986 375.726863,92.312 374.934859,92.312 C373.590853,92.312 372.492864,92.8219949 371.640859,93.842 C370.788855,94.8620051 370.362859,96.2239915 370.362859,97.928 L370.362859,107 L366.978859,107 L366.978859,93.608 C366.978859,93.1519977 366.96686,92.5640036 366.942859,91.844 C366.918859,91.1239964 366.88286,90.4880028 366.834859,89.936 L370.038859,89.936 Z M404.105145,89.936 C404.153146,90.3680022 404.189145,90.8539973 404.213145,91.394 C404.237146,91.9340027 404.249145,92.3839982 404.249145,92.744 L404.357145,92.744 C404.573146,92.2879977 404.867144,91.862002 405.239145,91.466 C405.611147,91.069998 406.037143,90.7220015 406.517145,90.422 C406.997148,90.1219985 407.525143,89.8880008 408.101145,89.72 C408.677148,89.5519992 409.277142,89.468 409.901145,89.468 C411.005151,89.468 411.953141,89.6539981 412.745145,90.026 C413.537149,90.3980019 414.197143,90.8959969 414.725145,91.52 C415.253148,92.1440031 415.643144,92.8759958 415.895145,93.716 C416.147147,94.5560042 416.273145,95.4559952 416.273145,96.416 L416.273145,107 L412.889145,107 L412.889145,97.532 C412.889145,96.8359965 412.835146,96.1760031 412.727145,95.552 C412.619145,94.9279969 412.421147,94.3760024 412.133145,93.896 C411.845144,93.4159976 411.449148,93.0320014 410.945145,92.744 C410.441143,92.4559986 409.793149,92.312 409.001145,92.312 C407.657139,92.312 406.55915,92.8219949 405.707145,93.842 C404.855141,94.8620051 404.429145,96.2239915 404.429145,97.928 L404.429145,107 L401.045145,107 L401.045145,93.608 C401.045145,93.1519977 401.033146,92.5640036 401.009145,91.844 C400.985145,91.1239964 400.949146,90.4880028 400.901145,89.936 L404.105145,89.936 Z M434.674288,95.948 C434.674288,94.6759936 434.290292,93.7340031 433.522288,93.122 C432.754285,92.5099969 431.734295,92.204 430.462288,92.204 C429.502284,92.204 428.596293,92.3899981 427.744288,92.762 C426.892284,93.1340019 426.178291,93.6079971 425.602288,94.184 L423.802288,92.024 C424.642293,91.231996 425.668282,90.6080023 426.880288,90.152 C428.092294,89.6959977 429.394281,89.468 430.786288,89.468 C432.010294,89.468 433.072284,89.6419983 433.972288,89.99 C434.872293,90.3380017 435.610285,90.811997 436.186288,91.412 C436.762291,92.012003 437.194287,92.7199959 437.482288,93.536 C437.77029,94.3520041 437.914288,95.2279953 437.914288,96.164 L437.914288,103.616 C437.914288,104.192003 437.932288,104.797997 437.968288,105.434 C438.004289,106.070003 438.070288,106.591998 438.166288,107 L435.106288,107 C434.914287,106.183996 434.818288,105.368004 434.818288,104.552 L434.710288,104.552 C434.086285,105.464005 433.300293,106.171997 432.352288,106.676 C431.404284,107.180003 430.282295,107.432 428.986288,107.432 C428.314285,107.432 427.612292,107.342001 426.880288,107.162 C426.148285,106.981999 425.482291,106.688002 424.882288,106.28 C424.282285,105.871998 423.78429,105.332003 423.388288,104.66 C422.992286,103.987997 422.794288,103.160005 422.794288,102.176 C422.794288,100.879994 423.142285,99.8540038 423.838288,99.098 C424.534292,98.3419962 425.446283,97.766002 426.574288,97.37 C427.702294,96.973998 428.974281,96.7160006 430.390288,96.596 C431.806295,96.4759994 433.234281,96.416 434.674288,96.416 L434.674288,95.948 Z M433.846288,98.864 C433.006284,98.864 432.136293,98.8999996 431.236288,98.972 C430.336284,99.0440004 429.520292,99.1879989 428.788288,99.404 C428.056285,99.6200011 427.450291,99.9439978 426.970288,100.376 C426.490286,100.808002 426.250288,101.383996 426.250288,102.104 C426.250288,102.608003 426.352287,103.027998 426.556288,103.364 C426.760289,103.700002 427.030287,103.975999 427.366288,104.192 C427.70229,104.408001 428.074286,104.558 428.482288,104.642 C428.89029,104.726 429.310286,104.768 429.742288,104.768 C431.326296,104.768 432.544284,104.294005 433.396288,103.346 C434.248293,102.397995 434.674288,101.204007 434.674288,99.764 L434.674288,98.864 L433.846288,98.864 Z M453.615431,92.708 L449.079431,92.708 L449.079431,101.6 C449.079431,102.632005 449.271429,103.369998 449.655431,103.814 C450.039433,104.258002 450.651427,104.48 451.491431,104.48 C451.803433,104.48 452.13943,104.444 452.499431,104.372 C452.859433,104.3 453.18343,104.192001 453.471431,104.048 L453.579431,106.82 C453.171429,106.964001 452.721434,107.078 452.229431,107.162 C451.737429,107.246 451.227434,107.288 450.699431,107.288 C449.091423,107.288 447.861436,106.844004 447.009431,105.956 C446.157427,105.067996 445.731431,103.736009 445.731431,101.96 L445.731431,92.708 L442.455431,92.708 L442.455431,89.936 L445.731431,89.936 L445.731431,85.04 L449.079431,85.04 L449.079431,89.936 L453.615431,89.936 L453.615431,92.708 Z M462.584574,107 L459.200574,107 L459.200574,89.936 L462.584574,89.936 L462.584574,107 Z M463.160574,83.78 C463.160574,84.4040031 462.938577,84.919998 462.494574,85.328 C462.050572,85.736002 461.516577,85.94 460.892574,85.94 C460.268571,85.94 459.740576,85.7300021 459.308574,85.31 C458.876572,84.8899979 458.660574,84.380003 458.660574,83.78 C458.660574,83.1559969 458.876572,82.6340021 459.308574,82.214 C459.740576,81.7939979 460.268571,81.584 460.892574,81.584 C461.516577,81.584 462.050572,81.7939979 462.494574,82.214 C462.938577,82.6340021 463.160574,83.1559969 463.160574,83.78 Z M478.573717,107 L474.901717,107 L467.953717,89.936 L471.697717,89.936 L476.701717,103.364 L476.773717,103.364 L481.813717,89.936 L485.413717,89.936 L478.573717,107 Z M503.23886,96.956 C503.21486,96.2839966 503.100861,95.6540029 502.89686,95.066 C502.692859,94.4779971 502.392862,93.9680022 501.99686,93.536 C501.600858,93.1039978 501.108863,92.7620013 500.52086,92.51 C499.932857,92.2579987 499.242864,92.132 498.45086,92.132 C497.730857,92.132 497.052863,92.2579987 496.41686,92.51 C495.780857,92.7620013 495.228863,93.1039978 494.76086,93.536 C494.292858,93.9680022 493.908862,94.4779971 493.60886,95.066 C493.308859,95.6540029 493.134861,96.2839966 493.08686,96.956 L503.23886,96.956 Z M506.65886,98.324 L506.65886,98.9 C506.65886,99.092001 506.64686,99.283999 506.62286,99.476 L493.08686,99.476 C493.11086,100.196004 493.272859,100.873997 493.57286,101.51 C493.872862,102.146003 494.274858,102.697998 494.77886,103.166 C495.282863,103.634002 495.864857,103.999999 496.52486,104.264 C497.184864,104.528001 497.886857,104.66 498.63086,104.66 C499.782866,104.66 500.778856,104.408003 501.61886,103.904 C502.458864,103.399997 503.118858,102.788004 503.59886,102.068 L505.97486,103.976 C505.062856,105.176006 503.988866,106.057997 502.75286,106.622 C501.516854,107.186003 500.142868,107.468 498.63086,107.468 C497.334854,107.468 496.134866,107.252002 495.03086,106.82 C493.926855,106.387998 492.978864,105.782004 492.18686,105.002 C491.394856,104.221996 490.770863,103.280006 490.31486,102.176 C489.858858,101.071994 489.63086,99.8480067 489.63086,98.504 C489.63086,97.1839934 489.852858,95.9660056 490.29686,94.85 C490.740862,93.7339944 491.358856,92.780004 492.15086,91.988 C492.942864,91.195996 493.878855,90.5780022 494.95886,90.134 C496.038866,89.6899978 497.202854,89.468 498.45086,89.468 C499.698867,89.468 500.832855,89.671998 501.85286,90.08 C502.872865,90.488002 503.736857,91.0759962 504.44486,91.844 C505.152864,92.6120038 505.698858,93.5419945 506.08286,94.634 C506.466862,95.7260055 506.65886,96.9559932 506.65886,98.324 Z M527.909146,107 L524.525146,107 L524.525146,89.936 L527.909146,89.936 L527.909146,107 Z M528.485146,83.78 C528.485146,84.4040031 528.263148,84.919998 527.819146,85.328 C527.375144,85.736002 526.841149,85.94 526.217146,85.94 C525.593143,85.94 525.065148,85.7300021 524.633146,85.31 C524.201144,84.8899979 523.985146,84.380003 523.985146,83.78 C523.985146,83.1559969 524.201144,82.6340021 524.633146,82.214 C525.065148,81.7939979 525.593143,81.584 526.217146,81.584 C526.841149,81.584 527.375144,81.7939979 527.819146,82.214 C528.263148,82.6340021 528.485146,83.1559969 528.485146,83.78 Z M561.754289,94.22 C561.754289,96.1880098 561.412293,97.9939918 560.728289,99.638 C560.044286,101.282008 559.102295,102.697994 557.902289,103.886 C556.702283,105.074006 555.274297,105.997997 553.618289,106.658 C551.962281,107.318003 550.162299,107.648 548.218289,107.648 C546.274279,107.648 544.480297,107.318003 542.836289,106.658 C541.192281,105.997997 539.770295,105.074006 538.570289,103.886 C537.370283,102.697994 536.434293,101.282008 535.762289,99.638 C535.090286,97.9939918 534.754289,96.1880098 534.754289,94.22 C534.754289,92.22799 535.090286,90.4100082 535.762289,88.766 C536.434293,87.1219918 537.370283,85.7180058 538.570289,84.554 C539.770295,83.3899942 541.192281,82.4840032 542.836289,81.836 C544.480297,81.1879968 546.274279,80.864 548.218289,80.864 C550.162299,80.864 551.962281,81.1879968 553.618289,81.836 C555.274297,82.4840032 556.702283,83.3899942 557.902289,84.554 C559.102295,85.7180058 560.044286,87.1219918 560.728289,88.766 C561.412293,90.4100082 561.754289,92.22799 561.754289,94.22 Z M557.902289,94.22 C557.902289,92.827993 557.674291,91.5140062 557.218289,90.278 C556.762287,89.0419938 556.114293,87.9560047 555.274289,87.02 C554.434285,86.0839953 553.420295,85.3460027 552.232289,84.806 C551.044283,84.2659973 549.706297,83.996 548.218289,83.996 C546.754282,83.996 545.428295,84.2659973 544.240289,84.806 C543.052283,85.3460027 542.044293,86.0839953 541.216289,87.02 C540.388285,87.9560047 539.746291,89.0419938 539.290289,90.278 C538.834287,91.5140062 538.606289,92.827993 538.606289,94.22 C538.606289,95.6360071 538.834287,96.9679938 539.290289,98.216 C539.746291,99.4640062 540.394285,100.549995 541.234289,101.474 C542.074293,102.398005 543.082283,103.123997 544.258289,103.652 C545.434295,104.180003 546.754282,104.444 548.218289,104.444 C549.682297,104.444 551.014283,104.180003 552.214289,103.652 C553.414295,103.123997 554.434285,102.398005 555.274289,101.474 C556.114293,100.549995 556.762287,99.4640062 557.218289,98.216 C557.674291,96.9679938 557.902289,95.6360071 557.902289,94.22 Z M581.343432,86.228 C580.83943,85.5319965 580.155436,84.9620022 579.291432,84.518 C578.427428,84.0739978 577.455438,83.852 576.375432,83.852 C575.799429,83.852 575.217435,83.9299992 574.629432,84.086 C574.041429,84.2420008 573.507435,84.4939983 573.027432,84.842 C572.54743,85.1900017 572.157434,85.6219974 571.857432,86.138 C571.557431,86.6540026 571.407432,87.2719964 571.407432,87.992 C571.407432,88.6880035 571.545431,89.2699977 571.821432,89.738 C572.097434,90.2060023 572.46943,90.6019984 572.937432,90.926 C573.405435,91.2500016 573.957429,91.5259989 574.593432,91.754 C575.229435,91.9820011 575.907429,92.2159988 576.627432,92.456 C577.491436,92.7200013 578.367428,93.0199983 579.255432,93.356 C580.143437,93.6920017 580.947429,94.1359972 581.667432,94.688 C582.387436,95.2400028 582.97543,95.9299959 583.431432,96.758 C583.887434,97.5860041 584.115432,98.6359936 584.115432,99.908 C584.115432,101.228007 583.869435,102.373995 583.377432,103.346 C582.88543,104.318005 582.231436,105.121997 581.415432,105.758 C580.599428,106.394003 579.657438,106.867998 578.589432,107.18 C577.521427,107.492002 576.423438,107.648 575.295432,107.648 C573.687424,107.648 572.13344,107.336003 570.633432,106.712 C569.133425,106.087997 567.891437,105.164006 566.907432,103.94 L569.679432,101.6 C570.279435,102.488004 571.083427,103.207997 572.091432,103.76 C573.099437,104.312003 574.191426,104.588 575.367432,104.588 C575.967435,104.588 576.567429,104.504001 577.167432,104.336 C577.767435,104.167999 578.31343,103.904002 578.805432,103.544 C579.297435,103.183998 579.699431,102.734003 580.011432,102.194 C580.323434,101.653997 580.479432,101.000004 580.479432,100.232 C580.479432,99.4639962 580.317434,98.8220026 579.993432,98.306 C579.669431,97.7899974 579.231435,97.3520018 578.679432,96.992 C578.127429,96.6319982 577.485436,96.3260013 576.753432,96.074 C576.021429,95.8219987 575.247436,95.5640013 574.431432,95.3 C573.615428,95.0599988 572.811436,94.7660017 572.019432,94.418 C571.227428,94.0699983 570.519435,93.6260027 569.895432,93.086 C569.271429,92.5459973 568.767434,91.880004 568.383432,91.088 C567.99943,90.295996 567.807432,89.3120059 567.807432,88.136 C567.807432,86.8639936 568.06543,85.7720046 568.581432,84.86 C569.097435,83.9479954 569.769428,83.192003 570.597432,82.592 C571.425436,81.991997 572.361427,81.5540014 573.405432,81.278 C574.449437,81.0019986 575.499427,80.864 576.555432,80.864 C578.04344,80.864 579.435426,81.1279974 580.731432,81.656 C582.027439,82.1840026 583.071428,82.8919956 583.863432,83.78 L581.343432,86.228 Z M611.305718,94.256 C610.921716,93.6319969 610.381722,93.122002 609.685718,92.726 C608.989715,92.329998 608.209722,92.132 607.345718,92.132 C606.961716,92.132 606.57772,92.1739996 606.193718,92.258 C605.809716,92.3420004 605.46772,92.4739991 605.167718,92.654 C604.867717,92.8340009 604.627719,93.0619986 604.447718,93.338 C604.267717,93.6140014 604.177718,93.955998 604.177718,94.364 C604.177718,95.0840036 604.501715,95.6179983 605.149718,95.966 C605.797721,96.3140017 606.769712,96.6319986 608.065718,96.92 C608.881722,97.112001 609.637715,97.3399987 610.333718,97.604 C611.029722,97.8680013 611.635716,98.197998 612.151718,98.594 C612.667721,98.990002 613.069717,99.4639972 613.357718,100.016 C613.64572,100.568003 613.789718,101.215996 613.789718,101.96 C613.789718,102.968005 613.59772,103.819997 613.213718,104.516 C612.829716,105.212003 612.319721,105.781998 611.683718,106.226 C611.047715,106.670002 610.321722,106.987999 609.505718,107.18 C608.689714,107.372001 607.849722,107.468 606.985718,107.468 C605.689712,107.468 604.423724,107.216003 603.187718,106.712 C601.951712,106.207997 600.925722,105.440005 600.109718,104.408 L602.521718,102.356 C602.97772,103.028003 603.607714,103.591998 604.411718,104.048 C605.215722,104.504002 606.097713,104.732 607.057718,104.732 C607.48972,104.732 607.903716,104.69 608.299718,104.606 C608.69572,104.522 609.055716,104.384001 609.379718,104.192 C609.70372,103.999999 609.961717,103.748002 610.153718,103.436 C610.345719,103.123998 610.441718,102.728002 610.441718,102.248 C610.441718,101.455996 610.063722,100.868002 609.307718,100.484 C608.551714,100.099998 607.441725,99.7400017 605.977718,99.404 C605.401715,99.2599993 604.819721,99.086001 604.231718,98.882 C603.643715,98.677999 603.109721,98.3960018 602.629718,98.036 C602.149716,97.6759982 601.75972,97.2260027 601.459718,96.686 C601.159717,96.1459973 601.009718,95.480004 601.009718,94.688 C601.009718,93.7759954 601.195716,92.9900033 601.567718,92.33 C601.93972,91.6699967 602.425715,91.1300021 603.025718,90.71 C603.625721,90.2899979 604.309714,89.978001 605.077718,89.774 C605.845722,89.569999 606.637714,89.468 607.453718,89.468 C608.677724,89.468 609.859712,89.7079976 610.999718,90.188 C612.139724,90.6680024 613.021715,91.3639954 613.645718,92.276 L611.305718,94.256 Z M628.482861,92.708 L623.946861,92.708 L623.946861,101.6 C623.946861,102.632005 624.138859,103.369998 624.522861,103.814 C624.906863,104.258002 625.518857,104.48 626.358861,104.48 C626.670863,104.48 627.006859,104.444 627.366861,104.372 C627.726863,104.3 628.05086,104.192001 628.338861,104.048 L628.446861,106.82 C628.038859,106.964001 627.588864,107.078 627.096861,107.162 C626.604859,107.246 626.094864,107.288 625.566861,107.288 C623.958853,107.288 622.728865,106.844004 621.876861,105.956 C621.024857,105.067996 620.598861,103.736009 620.598861,101.96 L620.598861,92.708 L617.322861,92.708 L617.322861,89.936 L620.598861,89.936 L620.598861,85.04 L623.946861,85.04 L623.946861,89.936 L628.482861,89.936 L628.482861,92.708 Z M640.512004,103.328 L640.584004,103.328 L645.300004,89.936 L648.900004,89.936 L640.620004,111.032 C640.332003,111.752004 640.020006,112.393997 639.684004,112.958 C639.348002,113.522003 638.952006,114.001998 638.496004,114.398 C638.040002,114.794002 637.506007,115.099999 636.894004,115.316 C636.282001,115.532001 635.556008,115.64 634.716004,115.64 C634.356002,115.64 633.990006,115.622 633.618004,115.586 C633.246002,115.55 632.868006,115.484 632.484004,115.388 L632.808004,112.4 C633.384007,112.592001 633.948001,112.688 634.500004,112.688 C635.388008,112.688 636.048002,112.442002 636.480004,111.95 C636.912006,111.457998 637.308002,110.756005 637.668004,109.844 L638.748004,107 L631.440004,89.936 L635.220004,89.936 L640.512004,103.328 Z M657.689147,107 L654.305147,107 L654.305147,79.784 L657.689147,79.784 L657.689147,107 Z M678.14229,96.956 C678.11829,96.2839966 678.004291,95.6540029 677.80029,95.066 C677.596289,94.4779971 677.296292,93.9680022 676.90029,93.536 C676.504288,93.1039978 676.012293,92.7620013 675.42429,92.51 C674.836287,92.2579987 674.146294,92.132 673.35429,92.132 C672.634286,92.132 671.956293,92.2579987 671.32029,92.51 C670.684287,92.7620013 670.132292,93.1039978 669.66429,93.536 C669.196288,93.9680022 668.812291,94.4779971 668.51229,95.066 C668.212288,95.6540029 668.03829,96.2839966 667.99029,96.956 L678.14229,96.956 Z M681.56229,98.324 L681.56229,98.9 C681.56229,99.092001 681.55029,99.283999 681.52629,99.476 L667.99029,99.476 C668.01429,100.196004 668.176288,100.873997 668.47629,101.51 C668.776291,102.146003 669.178287,102.697998 669.68229,103.166 C670.186293,103.634002 670.768287,103.999999 671.42829,104.264 C672.088293,104.528001 672.790286,104.66 673.53429,104.66 C674.686296,104.66 675.682286,104.408003 676.52229,103.904 C677.362294,103.399997 678.022288,102.788004 678.50229,102.068 L680.87829,103.976 C679.966285,105.176006 678.892296,106.057997 677.65629,106.622 C676.420284,107.186003 675.046298,107.468 673.53429,107.468 C672.238284,107.468 671.038296,107.252002 669.93429,106.82 C668.830284,106.387998 667.882294,105.782004 667.09029,105.002 C666.298286,104.221996 665.674292,103.280006 665.21829,102.176 C664.762288,101.071994 664.53429,99.8480067 664.53429,98.504 C664.53429,97.1839934 664.756288,95.9660056 665.20029,94.85 C665.644292,93.7339944 666.262286,92.780004 667.05429,91.988 C667.846294,91.195996 668.782285,90.5780022 669.86229,90.134 C670.942295,89.6899978 672.106284,89.468 673.35429,89.468 C674.602296,89.468 675.736285,89.671998 676.75629,90.08 C677.776295,90.488002 678.640286,91.0759962 679.34829,91.844 C680.056294,92.6120038 680.602288,93.5419945 680.98629,94.634 C681.370292,95.7260055 681.56229,96.9559932 681.56229,98.324 Z" id="authorization-form-i" fill="#657786"></path>
                        <path d="M5.772,0.608 L18.13,0.608 L42.476,39.828 L42.624,39.828 L42.624,0.608 L51.948,0.608 L51.948,53 L40.108,53 L15.244,12.522 L15.096,12.522 L15.096,53 L5.772,53 L5.772,0.608 Z M85.8295775,48.486 L85.6075775,48.486 C84.719573,50.0646746 83.2889207,51.3596616 81.3155775,52.371 C79.3422343,53.3823384 77.0975901,53.888 74.5815775,53.888 C73.1509037,53.888 71.6585853,53.7030019 70.1045775,53.333 C68.5505697,52.9629982 67.1199174,52.3463377 65.8125775,51.483 C64.5052376,50.6196624 63.4199151,49.485007 62.5565775,48.079 C61.6932398,46.672993 61.2615775,44.9340104 61.2615775,42.862 C61.2615775,40.1979867 62.0139033,38.0766746 63.5185775,36.498 C65.0232517,34.9193254 66.9595656,33.7106709 69.3275775,32.872 C71.6955893,32.0333291 74.3225631,31.4783347 77.2085775,31.207 C80.0945919,30.9356653 82.918897,30.8 85.6815775,30.8 L85.6815775,29.912 C85.6815775,27.6919889 84.8799188,26.051672 83.2765775,24.991 C81.6732361,23.930328 79.7615886,23.4 77.5415775,23.4 C75.6669014,23.4 73.8662528,23.7946627 72.1395775,24.584 C70.4129022,25.3733373 68.9822498,26.3353277 67.8475775,27.47 L63.2595775,22.068 C65.2822543,20.193324 67.613231,18.787338 70.2525775,17.85 C72.891924,16.912662 75.5682306,16.444 78.2815775,16.444 C81.4389266,16.444 84.0412339,16.8879956 86.0885775,17.776 C88.1359211,18.6640044 89.7515716,19.8233262 90.9355775,21.254 C92.1195834,22.6846738 92.9459085,24.2879911 93.4145775,26.064 C93.8832465,27.8400089 94.1175775,29.6159911 94.1175775,31.392 L94.1175775,53 L85.8295775,53 L85.8295775,48.486 Z M85.6815775,36.794 L83.6835775,36.794 C82.2529037,36.794 80.748252,36.8556661 79.1695775,36.979 C77.5909029,37.102334 76.1355841,37.3736646 74.8035775,37.793 C73.4715708,38.2123354 72.3615819,38.8043295 71.4735775,39.569 C70.585573,40.3336705 70.1415775,41.3819933 70.1415775,42.714 C70.1415775,43.5526709 70.3265756,44.2556638 70.6965775,44.823 C71.0665793,45.3903362 71.5475745,45.8466649 72.1395775,46.192 C72.7315804,46.5373351 73.3975738,46.7839993 74.1375775,46.932 C74.8775812,47.0800007 75.6175738,47.154 76.3575775,47.154 C79.4162594,47.154 81.7349029,46.3400081 83.3135775,44.712 C84.892252,43.0839919 85.6815775,40.8640141 85.6815775,38.052 L85.6815775,36.794 Z M99.361155,24.584 L99.361155,17.48 L105.577155,17.48 L105.577155,7.194 L114.309155,7.194 L114.309155,17.48 L123.189155,17.48 L123.189155,24.584 L114.309155,24.584 L114.309155,41.086 C114.309155,42.6646746 114.592819,43.9719948 115.160155,45.008 C115.727491,46.0440052 116.997812,46.562 118.971155,46.562 C119.563158,46.562 120.204485,46.500334 120.895155,46.377 C121.585825,46.2536661 122.202486,46.0686679 122.745155,45.822 L123.041155,52.778 C122.251818,53.0740015 121.314494,53.3083325 120.229155,53.481 C119.143816,53.6536675 118.107827,53.74 117.121155,53.74 C114.753143,53.74 112.829162,53.4070033 111.349155,52.741 C109.869148,52.0749967 108.697493,51.1623391 107.834155,50.003 C106.970817,48.8436609 106.378823,47.5116742 106.058155,46.007 C105.737487,44.5023258 105.577155,42.8866753 105.577155,41.16 L105.577155,24.584 L99.361155,24.584 Z M130.504732,17.48 L139.384732,17.48 L139.384732,53 L130.504732,53 L130.504732,17.48 Z M129.246732,5.418 C129.246732,3.98732618 129.77706,2.74167197 130.837732,1.681 C131.898404,0.62032803 133.242724,0.09 134.870732,0.09 C136.498741,0.09 137.867727,0.59566161 138.977732,1.607 C140.087738,2.61833839 140.642732,3.88865902 140.642732,5.418 C140.642732,6.94734098 140.087738,8.21766161 138.977732,9.229 C137.867727,10.2403384 136.498741,10.746 134.870732,10.746 C133.242724,10.746 131.898404,10.215672 130.837732,9.155 C129.77706,8.09432803 129.246732,6.84867382 129.246732,5.418 Z M145.59031,17.48 L155.28431,17.48 L164.60831,43.38 L164.75631,43.38 L174.15431,17.48 L183.55231,17.48 L169.41831,53 L159.94631,53 L145.59031,17.48 Z M214.621887,31.688 C214.621887,30.5533277 214.461556,29.4680052 214.140887,28.432 C213.820219,27.3959948 213.314558,26.4833373 212.623887,25.694 C211.933217,24.9046627 211.057559,24.275669 209.996887,23.807 C208.936215,23.338331 207.690561,23.104 206.259887,23.104 C203.595874,23.104 201.338897,23.9056587 199.488887,25.509 C197.638878,27.1123414 196.615222,29.1719874 196.417887,31.688 L214.621887,31.688 Z M223.501887,35.684 L223.501887,36.868 C223.501887,37.2626686 223.477221,37.6573314 223.427887,38.052 L196.417887,38.052 C196.516555,39.3346731 196.849551,40.506328 197.416887,41.567 C197.984224,42.627672 198.736549,43.5403295 199.673887,44.305 C200.611225,45.0696705 201.671881,45.6739978 202.855887,46.118 C204.039893,46.5620022 205.273214,46.784 206.555887,46.784 C208.775899,46.784 210.650546,46.3770041 212.179887,45.563 C213.709228,44.7489959 214.967216,43.6266738 215.953887,42.196 L221.873887,46.932 C218.371203,51.6680237 213.289921,54.036 206.629887,54.036 C203.867207,54.036 201.326566,53.6043377 199.007887,52.741 C196.689209,51.8776624 194.678896,50.6566746 192.976887,49.078 C191.274879,47.4993254 189.942892,45.5630115 188.980887,43.269 C188.018883,40.9749885 187.537887,38.3726812 187.537887,35.462 C187.537887,32.6006524 188.018883,29.9983451 188.980887,27.655 C189.942892,25.311655 191.262546,23.3136749 192.939887,21.661 C194.617229,20.0083251 196.602876,18.7256712 198.896887,17.813 C201.190899,16.9003288 203.669874,16.444 206.333887,16.444 C208.800566,16.444 211.08221,16.8509959 213.178887,17.665 C215.275565,18.4790041 217.088546,19.6876587 218.617887,21.291 C220.147228,22.8943414 221.34355,24.8923214 222.206887,27.285 C223.070225,29.6776786 223.501887,32.4773173 223.501887,35.684 Z M252.489042,0.608 L261.813042,0.608 L261.813042,44.712 L284.087042,44.712 L284.087042,53 L252.489042,53 L252.489042,0.608 Z M287.18462,35.092 C287.18462,32.2799859 287.690281,29.7270115 288.70162,27.433 C289.712958,25.1389885 291.081945,23.1780081 292.80862,21.55 C294.535295,19.9219919 296.582608,18.6640044 298.95062,17.776 C301.318632,16.8879956 303.834607,16.444 306.49862,16.444 C309.162633,16.444 311.678608,16.8879956 314.04662,17.776 C316.414632,18.6640044 318.461945,19.9219919 320.18862,21.55 C321.915295,23.1780081 323.284281,25.1389885 324.29562,27.433 C325.306958,29.7270115 325.81262,32.2799859 325.81262,35.092 C325.81262,37.9040141 325.306958,40.4693217 324.29562,42.788 C323.284281,45.1066783 321.915295,47.0923251 320.18862,48.745 C318.461945,50.3976749 316.414632,51.692662 314.04662,52.63 C311.678608,53.567338 309.162633,54.036 306.49862,54.036 C303.834607,54.036 301.318632,53.567338 298.95062,52.63 C296.582608,51.692662 294.535295,50.3976749 292.80862,48.745 C291.081945,47.0923251 289.712958,45.1066783 288.70162,42.788 C287.690281,40.4693217 287.18462,37.9040141 287.18462,35.092 Z M296.21262,35.092 C296.21262,36.4733402 296.422284,37.8546598 296.84162,39.236 C297.260955,40.6173402 297.889949,41.8506612 298.72862,42.936 C299.567291,44.0213388 300.627947,44.9093299 301.91062,45.6 C303.193293,46.2906701 304.722611,46.636 306.49862,46.636 C308.274629,46.636 309.803947,46.2906701 311.08662,45.6 C312.369293,44.9093299 313.429949,44.0213388 314.26862,42.936 C315.107291,41.8506612 315.736284,40.6173402 316.15562,39.236 C316.574955,37.8546598 316.78462,36.4733402 316.78462,35.092 C316.78462,33.7106598 316.574955,32.3416735 316.15562,30.985 C315.736284,29.6283266 315.107291,28.4073388 314.26862,27.322 C313.429949,26.2366612 312.369293,25.3610033 311.08662,24.695 C309.803947,24.0289967 308.274629,23.696 306.49862,23.696 C304.722611,23.696 303.193293,24.0289967 301.91062,24.695 C300.627947,25.3610033 299.567291,26.2366612 298.72862,27.322 C297.889949,28.4073388 297.260955,29.6283266 296.84162,30.985 C296.422284,32.3416735 296.21262,33.7106598 296.21262,35.092 Z M371.238197,17.48 L371.238197,49.818 C371.238197,53.0246827 370.843535,55.922987 370.054197,58.513 C369.26486,61.1030129 368.043872,63.2983243 366.391197,65.099 C364.738522,66.8996757 362.65421,68.2933284 360.138197,69.28 C357.622185,70.2666716 354.637548,70.76 351.184197,70.76 C349.753524,70.76 348.236539,70.6366679 346.633197,70.39 C345.029856,70.1433321 343.451205,69.7733358 341.897197,69.28 C340.34319,68.7866642 338.850871,68.1700037 337.420197,67.43 C335.989524,66.6899963 334.70687,65.851338 333.572197,64.914 L338.678197,58.032 C340.404873,59.6600081 342.35352,60.9056624 344.524197,61.769 C346.694875,62.6323376 348.890186,63.064 351.110197,63.064 C353.231541,63.064 355.019857,62.7556697 356.475197,62.139 C357.930538,61.5223302 359.08986,60.6713388 359.953197,59.586 C360.816535,58.5006612 361.433195,57.2180074 361.803197,55.738 C362.173199,54.2579926 362.358197,52.6300089 362.358197,50.854 L362.358197,48.264 L362.210197,48.264 C360.927524,49.9906753 359.287207,51.3103288 357.289197,52.223 C355.291187,53.1356712 353.058876,53.592 350.592197,53.592 C347.928184,53.592 345.510875,53.0986716 343.340197,52.112 C341.16952,51.1253284 339.331872,49.7933417 337.827197,48.116 C336.322523,46.4386583 335.150868,44.4776779 334.312197,42.233 C333.473526,39.9883221 333.054197,37.6080126 333.054197,35.092 C333.054197,32.5266538 333.461193,30.1093447 334.275197,27.84 C335.089201,25.5706553 336.248523,23.5973417 337.753197,21.92 C339.257872,20.2426583 341.083187,18.9106716 343.229197,17.924 C345.375208,16.9373284 347.780184,16.444 350.444197,16.444 C352.96021,16.444 355.30352,16.9619948 357.474197,17.998 C359.644875,19.0340052 361.371524,20.6373225 362.654197,22.808 L362.802197,22.808 L362.802197,17.48 L371.238197,17.48 Z M352.294197,23.696 C350.666189,23.696 349.223204,23.991997 347.965197,24.584 C346.707191,25.176003 345.646535,25.9776616 344.783197,26.989 C343.91986,28.0003384 343.253866,29.1966598 342.785197,30.578 C342.316528,31.9593402 342.082197,33.4393254 342.082197,35.018 C342.082197,36.4486738 342.316528,37.8299933 342.785197,39.162 C343.253866,40.4940067 343.91986,41.690328 344.783197,42.751 C345.646535,43.811672 346.707191,44.6626635 347.965197,45.304 C349.223204,45.9453365 350.641523,46.266 352.220197,46.266 C353.848205,46.266 355.315857,45.9576698 356.623197,45.341 C357.930537,44.7243303 359.040526,43.8980052 359.953197,42.862 C360.865869,41.8259948 361.568862,40.6296735 362.062197,39.273 C362.555533,37.9163266 362.802197,36.4980074 362.802197,35.018 C362.802197,33.488659 362.555533,32.0333402 362.062197,30.652 C361.568862,29.2706598 360.865869,28.0620052 359.953197,27.026 C359.040526,25.9899948 357.94287,25.176003 356.660197,24.584 C355.377524,23.991997 353.922205,23.696 352.294197,23.696 Z M382.771775,17.48 L391.651775,17.48 L391.651775,53 L382.771775,53 L382.771775,17.48 Z M381.513775,5.418 C381.513775,3.98732618 382.044103,2.74167197 383.104775,1.681 C384.165447,0.62032803 385.509767,0.09 387.137775,0.09 C388.765783,0.09 390.134769,0.59566161 391.244775,1.607 C392.35478,2.61833839 392.909775,3.88865902 392.909775,5.418 C392.909775,6.94734098 392.35478,8.21766161 391.244775,9.229 C390.134769,10.2403384 388.765783,10.746 387.137775,10.746 C385.509767,10.746 384.165447,10.215672 383.104775,9.155 C382.044103,8.09432803 381.513775,6.84867382 381.513775,5.418 Z M403.185352,17.48 L411.621352,17.48 L411.621352,23.178 L411.769352,23.178 C412.55869,21.4019911 413.927676,19.8356735 415.876352,18.479 C417.825029,17.1223266 420.131339,16.444 422.795352,16.444 C425.114031,16.444 427.099677,16.8509959 428.752352,17.665 C430.405027,18.4790041 431.76168,19.5519933 432.822352,20.884 C433.883024,22.2160067 434.660016,23.7453247 435.153352,25.472 C435.646688,27.1986753 435.893352,28.9746575 435.893352,30.8 L435.893352,53 L427.013352,53 L427.013352,33.316 C427.013352,32.2799948 426.939353,31.1946723 426.791352,30.06 C426.643352,28.9253277 426.322688,27.9016712 425.829352,26.989 C425.336016,26.0763288 424.65769,25.324003 423.794352,24.732 C422.931015,24.139997 421.784026,23.844 420.353352,23.844 C418.922678,23.844 417.689357,24.1276638 416.653352,24.695 C415.617347,25.2623362 414.766356,25.9899956 414.100352,26.878 C413.434349,27.7660044 412.928687,28.7896609 412.583352,29.949 C412.238017,31.1083391 412.065352,32.2799941 412.065352,33.464 L412.065352,53 L403.185352,53 L403.185352,17.48 Z" id="Native-Login" fill="#00A3E8"></path>
                    </g>
                </g>
                <g id="verification">
                    <g id="Group-3">
                        <mask id="mask-2" fill="white">
                            <use xlink:href="#path-1"></use>
                        </mask>
                        <g id="Clip-2"></g>
                        <path d="M181.551855,127.881524 L13.4481445,127.881524 C6.02100586,127.881524 0,121.859048 0,114.430095 L0,13.5432381 C0,6.11428571 6.02100586,0.0918095238 13.4481445,0.0918095238 L181.551855,0.0918095238 C188.978994,0.0918095238 195,6.11428571 195,13.5432381 L195,114.430095 C195,121.859048 188.978994,127.881524 181.551855,127.881524" id="Fill-1" fill="#E3E9F0" mask="url(#mask-2)"></path>
                    </g>
                    <path d="M56.9998112,87 C40.4309647,87 27,100.431385 27,117.000283 C27,120.512003 27.6343732,123.86815 28.7437711,127 L85.2562289,127 C86.3652492,123.86815 87,120.512003 87,117.000283 C86.9996224,100.431385 73.5686577,87 56.9998112,87" id="Fill-4" fill="#D2D9E4"></path>
                    <path d="M96.6537004,114 L16.3462996,114 C14.4984054,114 13,112.492406 13,110.633181 L13,16.3668192 C13,14.5075936 14.4984054,13 16.3462996,13 L96.6537004,13 C98.5015946,13 100,14.5075936 100,16.3668192 L100,110.633181 C100,112.492406 98.5015946,114 96.6537004,114" id="Fill-5" fill="#A9B2C5"></path>
                    <path d="M27,114 L87,114 C85.3295537,98.8141488 72.5421824,87 57,87 C41.4578176,87 28.6708264,98.8141488 27,114" id="Fill-6" fill="#8D94A6"></path>
                    <path d="M83.6668764,100 C85.5077032,100 87,98.5073363 87,96.6665228 L87,88.1383644 C87,85.2685835 85.1637046,82.7212752 82.4419243,81.8135182 L69.2740661,77.4246413 C67.9154415,76.971518 66.9978602,75.7016399 66.9948394,74.2693926 L66.9823784,68.342162 C69.0633622,67.3014888 70.4518175,65.2514834 70.6447739,62.9330025 L71.3727973,54.9954148 C72.7676719,53.7738699 73.6667506,51.9998921 73.6667506,50.0001079 L73.6667506,33.3334772 C73.6667506,31.4926637 72.1740761,30 70.3332494,30 L50.3333753,30 C44.8105176,30 40.3332494,34.4772359 40.3332494,40.0000539 L40.3332494,50.0001079 C40.3332494,51.9998921 41.2323281,53.7738699 42.6272027,54.9954148 L43.3552261,62.9330025 C43.5481825,65.2511058 44.9366378,67.3014888 47.0176216,68.342162 L47.004783,74.2693926 C47.0021398,75.7016399 46.0845585,76.9718956 44.7259339,77.4246413 L31.5580757,81.8135182 C28.8362954,82.7212752 27,85.2685835 27,88.1383644 L27,96.6665228 C27,98.5073363 28.4922968,100 30.3331236,100 L83.6668764,100" id="Fill-7" fill="#E3E9F0"></path>
                    <path d="M161.624857,23 L114.375143,23 C112.509409,23 111,21.6569244 111,20.0001699 C111,18.3434155 112.509409,17 114.375143,17 L161.624857,17 C163.490591,17 165,18.3434155 165,20.0001699 C165,21.6569244 163.490591,23 161.624857,23" id="Fill-8" fill="#787D8C"></path>
                    <path d="M178.618902,36 L114.381098,36 C112.512072,36 111,34.6569244 111,33.0001699 C111,31.3434155 112.512072,30 114.381098,30 L178.618902,30 C180.487928,30 182,31.3434155 182,33.0001699 C182,34.6569244 180.487928,36 178.618902,36" id="Fill-9" fill="#6B6D7B"></path>
                    <path d="M177.666516,83 L134.333107,83 C132.490779,83 131,81.6566606 131,80 C131,78.3433394 132.490779,77 134.333107,77 L177.666516,77 C179.509221,77 181,78.3433394 181,80 C181,81.6566606 179.509221,83 177.666516,83" id="Fill-10" fill="#8D94A6"></path>
                    <path d="M120.749908,83 L114.250092,83 C112.453485,83 111,81.6566606 111,80 C111,78.3433394 112.453485,77 114.250092,77 L120.749908,77 C122.546515,77 124,78.3433394 124,80 C124,81.6566606 122.546515,83 120.749908,83" id="Fill-11" fill="#787D8C"></path>
                    <path d="M167.666509,97 L134.333113,97 C132.490782,97 131,95.6565845 131,93.9998301 C131,92.3430756 132.490782,91 134.333113,91 L167.666509,91 C169.509218,91 171,92.3430756 171,93.9998301 C171,95.6565845 169.509218,97 167.666509,97" id="Fill-12" fill="#8D94A6"></path>
                    <path d="M120.749908,97 L114.250092,97 C112.453485,97 111,95.6565845 111,93.9998301 C111,92.3430756 112.453485,91 114.250092,91 L120.749908,91 C122.546515,91 124,92.3430756 124,93.9998301 C124,95.6565845 122.546515,97 120.749908,97" id="Fill-13" fill="#787D8C"></path>
                    <path d="M167.666509,110 L134.333113,110 C132.490782,110 131,108.656924 131,107.00017 C131,105.343415 132.490782,104 134.333113,104 L167.666509,104 C169.509218,104 171,105.343415 171,107.00017 C171,108.656924 169.509218,110 167.666509,110" id="Fill-14" fill="#8D94A6"></path>
                    <path d="M120.749908,110 L114.250092,110 C112.453485,110 111,108.656924 111,107.00017 C111,105.343415 112.453485,104 114.250092,104 L120.749908,104 C122.546515,104 124,105.343415 124,107.00017 C124,108.656924 122.546515,110 120.749908,110" id="Fill-15" fill="#787D8C"></path>
                    <path d="M121.5,49 C126.194277,49 130,52.805723 130,57.5 C130,62.194277 126.194277,66 121.5,66 C116.805723,66 113,62.194277 113,57.5 C113,52.805723 116.805723,49 121.5,49" id="Fill-16" fill="#00A3E8"></path>
                    <path d="M148.5,49 C153.194277,49 157,52.805723 157,57.5 C157,62.194277 153.194277,66 148.5,66 C143.805338,66 140,62.194277 140,57.5 C140,52.805723 143.805338,49 148.5,49" id="Fill-17" fill="#00A3E8"></path>
                    <path d="M175.499807,49 C180.194576,49 184,52.805723 184,57.5 C184,62.194277 180.194576,66 175.499807,66 C170.805424,66 167,62.194277 167,57.5 C167,52.805723 170.805424,49 175.499807,49" id="Fill-18" fill="#00A3E8"></path>
                    <g id="Group-22" transform="translate(32.000000, 87.000000)">
                        <mask id="mask-4" fill="white">
                            <use xlink:href="#path-3"></use>
                        </mask>
                        <g id="Clip-20"></g>
                        <path d="M49.6691729,13.7163803 C44.3109023,5.62094366 35.1921053,0.288253521 24.8379699,0.288253521 C14.4838346,0.288253521 5.36503759,5.62094366 0.00676691729,13.7163803 L49.6691729,13.7163803" id="Fill-19" fill="#D2D9E4" mask="url(#mask-4)"></path>
                        <path d="M24.8379699,7.00212676 C37.6676692,7.00212676 48.0684211,17.523 48.0684211,30.5012535 C48.0684211,43.4791268 37.6676692,54 24.8379699,54 C12.0082707,54 1.6075188,43.4791268 1.6075188,30.5012535 C1.6075188,17.523 12.0082707,7.00212676 24.8379699,7.00212676" id="Fill-21" fill="#00A3E8" mask="url(#mask-4)"></path>
                    </g>
                    <path d="M55.2490272,128 C54.4675814,128 53.6869002,127.734545 53.0541737,127.197594 L45.1804568,120.531014 C43.763226,119.33288 43.5984495,117.228499 44.8145842,115.830613 C46.0276603,114.43386 48.160197,114.273001 49.5701639,115.469247 L54.9653517,120.037865 L65.1359994,109.080961 C66.3949531,107.721968 68.5274897,107.633987 69.9053424,108.875923 C71.2797543,110.120879 71.3722738,112.229037 70.1129379,113.586519 L57.7371141,126.919678 C57.0715088,127.635613 56.1619884,128 55.2490272,128" id="Fill-23" fill="#FFFFFE"></path>
                </g>
            </g>
        </g>
    </g>
</svg>